<svg width="197" height="39" viewBox="0 0 197 39" fill="none" xmlns="http://www.w3.org/2000/svg">
<path d="M35.1277 12.0271L30.2308 3.25607C29.6725 2.25479 28.4087 1.5 27.2905 1.5H17.5173C16.8324 1.5 16.2752 1.79359 15.9892 2.30573C15.7031 2.81787 15.7354 3.46367 16.0776 4.07714L17.4702 6.57541H13.8318C12.7141 6.57541 11.4503 7.3302 10.8915 8.33093L9.36547 11.0636L8.21394 8.99808C7.23455 7.24201 7.23455 7.24201 6.76525 7.24201C6.29595 7.24201 6.29595 7.24201 5.31604 8.99754L0.419112 17.7686C-0.139704 18.7693 -0.139704 20.2789 0.419112 21.2796L5.31657 30.0507C6.29648 31.8062 6.29648 31.8062 6.76314 31.8062C7.22926 31.8062 7.22926 31.8062 8.21023 30.0518L9.366 27.9846L10.892 30.7173C11.4508 31.718 12.7147 32.4728 13.8323 32.4728H17.4273L16.058 34.9229C15.7153 35.5363 15.6825 36.1821 15.968 36.6937C16.2535 37.2064 16.8107 37.5 17.4956 37.5H27.2736C28.3912 37.5 29.6555 36.7452 30.2138 35.7445L35.1007 26.9921C35.4429 26.3786 35.4757 25.7322 35.1897 25.2206C34.9042 24.708 34.3469 24.4144 33.6621 24.4138L30.8304 24.4116L32.5794 21.2791C33.1382 20.2783 33.1382 18.7693 32.5794 17.768L30.8214 14.619L33.8353 14.6212C33.8422 14.6212 33.8485 14.6212 33.8554 14.6212C35.6177 14.6212 35.6193 14.6201 35.8571 14.2301L35.8883 14.1748C36.0976 13.7651 36.0976 13.7651 35.1277 12.0271ZM6.83411 29.229C6.81028 29.2718 6.78697 29.3139 6.76314 29.3556C6.73983 29.3139 6.71652 29.2718 6.69216 29.229L1.7947 20.4575C1.52191 19.9689 1.52191 19.0788 1.7947 18.5896L6.69216 9.8186C6.71652 9.77479 6.74089 9.73151 6.76472 9.68879C6.78856 9.73151 6.81293 9.77479 6.83729 9.8186L8.44806 12.7069L5.6222 17.7686C5.06338 18.7693 5.06338 20.2789 5.6222 21.2791L8.44859 26.3408L6.83411 29.229ZM6.99832 20.458C6.72553 19.9694 6.72553 19.0793 6.99832 18.5907L9.36494 14.3517L11.7337 18.5995C12.0065 19.0886 12.0059 19.9787 11.7326 20.4673L9.36653 24.6997L6.99832 20.458ZM12.2676 29.8957L10.2834 26.3424L13.1082 21.2895C13.6676 20.2888 13.6681 18.7797 13.1098 17.7784L10.2829 12.7074L12.2681 9.152C12.2904 9.11201 12.3206 9.07312 12.3481 9.03423L18.2017 19.5329L12.3455 30.009C12.3185 29.9718 12.2893 29.9345 12.2676 29.8957ZM33.661 26.0571C33.7071 26.0571 33.7442 26.0609 33.7738 26.0658C33.7632 26.0943 33.7474 26.1294 33.7246 26.1704L28.8377 34.9229C28.5649 35.412 27.8197 35.8568 27.2736 35.8568H17.4956C17.4506 35.8568 17.4135 35.8535 17.3849 35.8485C17.3955 35.8201 17.4108 35.7856 17.4336 35.7456L19.2631 32.4728H24.3704C25.488 32.4728 26.7523 31.718 27.3106 30.7173L29.914 26.0543L33.661 26.0571ZM20.1816 30.8296L22.3316 26.9833C22.6044 26.4947 23.3502 26.0505 23.8963 26.0505L28.0792 26.0538L25.934 29.8962C25.6607 30.3853 24.9154 30.8301 24.3698 30.8301L20.1816 30.8296ZM31.2033 20.458L28.9961 24.4111L23.8952 24.4072C22.7781 24.4072 21.5143 25.1609 20.955 26.1606L18.3447 30.8296H13.8312C13.7979 30.8296 13.7618 30.823 13.7274 30.8197L19.5767 20.3556L31.2446 20.3632C31.2313 20.395 31.2197 20.429 31.2033 20.458ZM31.2033 18.5902C31.2255 18.6302 31.243 18.6762 31.2615 18.7206L19.5778 18.7129L13.7322 8.22795C13.765 8.22521 13.8 8.21864 13.8318 8.21864H18.3865L20.9735 12.858C21.5318 13.8593 22.7951 14.6147 23.9127 14.6152L28.986 14.6185L31.2033 18.5902ZM20.2208 8.21864H24.3698C24.9154 8.21864 25.6612 8.66341 25.934 9.15255L28.0681 12.9753L23.9132 12.9725C23.3677 12.9725 22.6219 12.5267 22.3496 12.0375L20.2208 8.21864ZM29.9034 12.9764L27.3101 8.33148C26.7518 7.3302 25.488 6.57541 24.3698 6.57541H19.305L17.4543 3.25662C17.4315 3.21554 17.4156 3.18048 17.405 3.152C17.4341 3.14707 17.4712 3.14378 17.5173 3.14378H27.2905C27.8361 3.14378 28.5819 3.58855 28.8547 4.07769L33.7516 12.8487C33.7759 12.8925 33.8003 12.9364 33.8242 12.9791L29.9034 12.9764Z" fill="white"/>
<path d="M68.092 28V9.324H62.492L57.956 20.972L53.42 9.324H47.848V28H51.824V14.56L57.088 28H58.824L64.088 14.56V28H68.092ZM83.3931 28V19.264C83.3931 15.372 80.5651 14.14 77.4851 14.14C75.3571 14.14 73.2291 14.812 71.5771 16.268L72.9211 18.648C74.0691 17.584 75.4131 17.052 76.8691 17.052C78.6611 17.052 79.8371 17.948 79.8371 19.32V21.196C78.9411 20.104 77.3451 19.544 75.5531 19.544C73.3971 19.544 70.8491 20.692 70.8491 23.856C70.8491 26.88 73.3971 28.336 75.5531 28.336C77.3171 28.336 78.9131 27.692 79.8371 26.6V28H83.3931ZM79.8371 24.752C79.2491 25.536 78.1291 25.928 76.9811 25.928C75.5811 25.928 74.4331 25.2 74.4331 23.94C74.4331 22.652 75.5811 21.896 76.9811 21.896C78.1291 21.896 79.2491 22.288 79.8371 23.072V24.752ZM99.6043 28V18.452C99.6043 15.82 98.1763 14.14 95.2083 14.14C92.9963 14.14 91.3443 15.204 90.4763 16.24V14.476H86.9203V28H90.4763V18.9C91.0643 18.088 92.1562 17.304 93.5563 17.304C95.0683 17.304 96.0483 17.948 96.0483 19.824V28H99.6043ZM114.811 28V19.264C114.811 15.372 111.983 14.14 108.903 14.14C106.775 14.14 104.647 14.812 102.995 16.268L104.339 18.648C105.487 17.584 106.831 17.052 108.287 17.052C110.079 17.052 111.255 17.948 111.255 19.32V21.196C110.359 20.104 108.763 19.544 106.971 19.544C104.815 19.544 102.267 20.692 102.267 23.856C102.267 26.88 104.815 28.336 106.971 28.336C108.735 28.336 110.331 27.692 111.255 26.6V28H114.811ZM111.255 24.752C110.667 25.536 109.547 25.928 108.399 25.928C106.999 25.928 105.851 25.2 105.851 23.94C105.851 22.652 106.999 21.896 108.399 21.896C109.547 21.896 110.667 22.288 111.255 23.072V24.752ZM131.554 28L126.038 20.608L131.386 14.476H127.018L121.894 20.496V9.324H118.338V28H121.894V24.528L123.518 22.792L127.102 28H131.554ZM146.007 28V18.452C146.007 15.82 144.579 14.14 141.611 14.14C139.399 14.14 137.747 15.204 136.879 16.24V14.476H133.323V28H136.879V18.9C137.467 18.088 138.559 17.304 139.959 17.304C141.471 17.304 142.451 17.948 142.451 19.824V28H146.007ZM151.301 12.488C152.477 12.488 153.429 11.536 153.429 10.36C153.429 9.184 152.477 8.232 151.301 8.232C150.153 8.232 149.173 9.184 149.173 10.36C149.173 11.536 150.153 12.488 151.301 12.488ZM153.093 28V14.476H149.537V28H153.093ZM156.339 31.472C158.019 32.956 159.839 33.488 162.163 33.488C165.495 33.488 169.471 32.228 169.471 27.076V14.476H165.887V16.212C164.795 14.84 163.339 14.14 161.715 14.14C158.299 14.14 155.751 16.604 155.751 21.028C155.751 25.536 158.327 27.916 161.715 27.916C163.367 27.916 164.823 27.132 165.887 25.788V27.16C165.887 29.82 163.871 30.576 162.163 30.576C160.455 30.576 159.027 30.1 157.935 28.896L156.339 31.472ZM165.887 23.212C165.299 24.08 164.011 24.752 162.835 24.752C160.819 24.752 159.419 23.352 159.419 21.028C159.419 18.704 160.819 17.304 162.835 17.304C164.011 17.304 165.299 17.948 165.887 18.844V23.212ZM185.71 28V18.396C185.71 15.764 184.282 14.14 181.314 14.14C179.102 14.14 177.422 15.204 176.554 16.24V9.324H172.998V28H176.554V18.9C177.17 18.088 178.262 17.304 179.634 17.304C181.174 17.304 182.154 17.892 182.154 19.768V28H185.71ZM193.777 28.336C195.261 28.336 196.213 27.944 196.745 27.468L195.989 24.78C195.793 24.976 195.289 25.172 194.757 25.172C193.973 25.172 193.525 24.528 193.525 23.688V17.584H196.269V14.476H193.525V10.78H189.941V14.476H187.701V17.584H189.941V24.64C189.941 27.048 191.285 28.336 193.777 28.336Z" fill="white"/>
</svg>
